SourceHebrewSans_1.ufo
<glyph name="E" format="1">
  <advance width="556"/>
  <unicode hex="0045"/>
  <outline>
    <contour>
      <point x="72" y="0" type="line"/>
      <point x="502" y="0" type="line"/>
      <point x="502" y="144" type="line"/>
      <point x="244" y="144" type="line"/>
      <point x="244" y="260" type="line"/>
      <point x="456" y="260" type="line"/>
      <point x="456" y="404" type="line"/>
      <point x="244" y="404" type="line"/>
      <point x="244" y="506" type="line"/>
      <point x="492" y="506" type="line"/>
      <point x="492" y="650" type="line"/>
      <point x="72" y="650" type="line"/>
    </contour>
    <contour>
      <point x="310" y="0" type="move" name="baseLC"/>
    </contour>
    <contour>
      <point x="290" y="670" type="move" name="aboveUC"/>
    </contour>
    <contour>
      <point x="396" y="0" type="move" name="ogonekUC"/>
    </contour>
    <contour>
      <point x="290" y="-20" type="move" name="belowLC"/>
    </contour>
  </outline>
</glyph>
<glyph name="I" format="1">
  <advance width="316"/>
  <unicode hex="0049"/>
  <outline>
    <contour>
      <point x="72" y="0" type="line"/>
      <point x="244" y="0" type="line"/>
      <point x="244" y="650" type="line"/>
      <point x="72" y="650" type="line"/>
    </contour>
    <contour>
      <point x="160" y="0" type="move" name="baseLC"/>
    </contour>
    <contour>
      <point x="158" y="670" type="move" name="aboveUC"/>
    </contour>
    <contour>
      <point x="140" y="0" type="move" name="ogonekUC"/>
    </contour>
    <contour>
      <point x="158" y="-20" type="move" name="belowLC"/>
    </contour>
  </outline>
</glyph>
<glyph name="L" format="1">
  <advance width="530"/>
  <unicode hex="004C"/>
  <outline>
    <contour>
      <point x="72" y="0" type="line"/>
      <point x="490" y="0" type="line"/>
      <point x="490" y="144" type="line"/>
      <point x="244" y="144" type="line"/>
      <point x="244" y="650" type="line"/>
      <point x="72" y="650" type="line"/>
    </contour>
    <contour>
      <point x="290" y="0" type="move" name="baseLC"/>
    </contour>
    <contour>
      <point x="162" y="670" type="move" name="aboveUC"/>
    </contour>
    <contour>
      <point x="291" y="-20" type="move" name="belowLC"/>
    </contour>
    <contour>
      <point x="156" y="350" type="move" name="center"/>
    </contour>
  </outline>
</glyph>
<glyph name="Adieresis" format="1">
  <advance width="584"/>
  <unicode hex="00C4"/>
  <outline>
    <component base="A"/>
    <component base="dieresiscmb.cap" xOffset="288"/>
    <contour>
      <point x="484" y="0" type="move" name="ogonekUC"/>
    </contour>
  </outline>
</glyph>
<glyph name="Oslash" format="1">
  <advance width="692"/>
  <unicode hex="00D8"/>
  <outline>
    <contour>
      <point x="124" y="-46" type="line"/>
      <point x="676" y="628" type="line"/>
      <point x="588" y="696" type="line"/>
      <point x="36" y="22" type="line"/>
    </contour>
    <component base="O"/>
    <contour>
      <point x="346" y="670" type="move" name="aboveUC"/>
    </contour>
    <contour>
      <point x="346" y="0" type="move" name="baseLC"/>
    </contour>
  </outline>
</glyph>
<glyph name="dezh" format="1">
  <advance width="956"/>
  <unicode hex="02A4"/>
  <outline>
    <contour>
      <point x="411" y="366" type="line"/>
      <point x="646" y="366" type="line"/>
      <point x="646" y="500" type="line"/>
      <point x="411" y="500" type="line"/>
    </contour>
    <component base="ezh" xOffset="482"/>
    <component base="d"/>
    <contour>
      <point x="478" y="730" type="move" name="aboveUC"/>
    </contour>
    <contour>
      <point x="478" y="-20" type="move" name="belowLC"/>
    </contour>
  </outline>
</glyph>
<glyph name="macroncmb" format="2">
	<unicode hex="0304"/>
	<outline>
		<contour>
			<point x="-154" y="588" type="line"/>
			<point x="154" y="588" type="line"/>
			<point x="154" y="696" type="line"/>
			<point x="-154" y="696" type="line"/>
		</contour>
	</outline>
	<anchor name="_aboveLC" x="0" y="520"/>
	<anchor name="aboveLC" x="0" y="520"/>
</glyph>
<glyph name="heAlef" format="1">
  <advance width="718.0"/>
  <unicode hex="05D0"/>
  <outline>
    <contour>
      <point x="538" y="170" type="line"/>
      <point x="624" y="286"/>
      <point x="664" y="360"/>
      <point x="664" y="458" type="curve" smooth="yes"/>
      <point x="664" y="546"/>
      <point x="605" y="580"/>
      <point x="480" y="580" type="curve" smooth="yes"/>
      <point x="460" y="580"/>
      <point x="436" y="580"/>
      <point x="404" y="574" type="curve"/>
      <point x="400" y="400" type="line"/>
      <point x="434" y="406"/>
      <point x="456" y="406"/>
      <point x="476" y="406" type="curve" smooth="yes"/>
      <point x="503" y="406"/>
      <point x="516" y="397"/>
      <point x="516" y="370" type="curve" smooth="yes"/>
      <point x="516" y="332"/>
      <point x="480" y="292"/>
      <point x="426" y="226" type="curve"/>
    </contour>
    <contour>
      <point x="80" y="0" type="curve"/>
      <point x="232" y="0" type="line"/>
      <point x="230" y="29"/>
      <point x="228" y="57"/>
      <point x="228" y="82" type="curve" smooth="yes"/>
      <point x="228" y="212"/>
      <point x="249" y="298"/>
      <point x="296" y="380" type="curve"/>
      <point x="164" y="408" type="line"/>
      <point x="108" y="328"/>
      <point x="78" y="236"/>
      <point x="78" y="84" type="curve" smooth="yes"/>
      <point x="78" y="56"/>
      <point x="78" y="29"/>
    </contour>
    <contour>
      <point x="546" y="-12" type="curve"/>
      <point x="676" y="80" type="line"/>
      <point x="506" y="226"/>
      <point x="310" y="426"/>
      <point x="198" y="580" type="curve"/>
      <point x="68" y="488" type="line"/>
      <point x="182" y="328"/>
      <point x="380" y="128"/>
    </contour>
  </outline>
</glyph>
<glyph name="heBet" format="1">
  <advance width="610.0"/>
  <unicode hex="05D1"/>
  <outline>
    <contour>
      <point x="524" y="20" type="line"/>
      <point x="524" y="362" type="line"/>
      <point x="524" y="510"/>
      <point x="448" y="568"/>
      <point x="338" y="568" type="curve"/>
      <point x="100" y="568" type="line"/>
      <point x="64" y="396" type="line"/>
      <point x="242" y="396" type="line"/>
      <point x="326" y="396"/>
      <point x="376" y="364"/>
      <point x="376" y="250" type="curve"/>
      <point x="376" y="20" type="line"/>
    </contour>
    <contour>
      <point x="556" y="0" type="curve"/>
      <point x="592" y="172" type="line"/>
      <point x="401" y="172"/>
      <point x="173" y="168"/>
      <point x="74" y="160" type="curve"/>
      <point x="38" y="-12" type="line"/>
      <point x="137" y="-3"/>
      <point x="381" y="0"/>
    </contour>
  </outline>
</glyph>
<glyph name="heGimel" format="1">
  <advance width="460.0"/>
  <unicode hex="05D2"/>
  <outline>
    <contour>
      <point x="260" y="0" type="line"/>
      <point x="408" y="0" type="line"/>
      <point x="372" y="428" type="line" smooth="yes"/>
      <point x="366" y="504"/>
      <point x="344" y="550"/>
      <point x="274" y="560" type="curve" smooth="yes"/>
      <point x="130" y="580" type="line"/>
      <point x="94" y="408" type="line"/>
      <point x="174" y="398" type="line" smooth="yes"/>
      <point x="226" y="392"/>
      <point x="232" y="384"/>
      <point x="238" y="306" type="curve" smooth="yes"/>
    </contour>
    <contour>
      <point x="44" y="-8" type="line"/>
      <point x="165" y="-2"/>
      <point x="261" y="80"/>
      <point x="266" y="159" type="curve"/>
      <point x="246" y="278" type="line"/>
      <point x="234" y="210"/>
      <point x="164" y="179"/>
      <point x="74" y="174" type="curve"/>
    </contour>
  </outline>
</glyph>
<glyph name="heDalet" format="1">
  <advance width="572.0"/>
  <unicode hex="05D3"/>
  <outline>
    <contour>
      <point x="14" y="396" type="line"/>
      <point x="528" y="396" type="line"/>
      <point x="564" y="568" type="line"/>
      <point x="50" y="568" type="line"/>
    </contour>
    <contour>
      <point x="300" y="0" type="line"/>
      <point x="448" y="0" type="line"/>
      <point x="448" y="272" type="line"/>
      <point x="448" y="330"/>
      <point x="456" y="372"/>
      <point x="476" y="398" type="curve"/>
      <point x="340" y="398" type="line"/>
      <point x="318" y="370"/>
      <point x="300" y="328"/>
      <point x="300" y="254" type="curve"/>
    </contour>
  </outline>
</glyph>
<glyph name="heHe" format="1">
  <advance width="702.0"/>
  <unicode hex="05D4"/>
  <outline>
    <contour>
      <point x="472" y="0" type="line"/>
      <point x="620" y="0" type="line"/>
      <point x="620" y="362" type="line" smooth="yes"/>
      <point x="620" y="511"/>
      <point x="544" y="568"/>
      <point x="434" y="568" type="curve"/>
      <point x="100" y="568" type="line"/>
      <point x="64" y="396" type="line"/>
      <point x="342" y="396" type="line"/>
      <point x="422" y="396"/>
      <point x="472" y="363"/>
      <point x="472" y="250" type="curve" smooth="yes"/>
    </contour>
    <contour>
      <point x="94" y="0" type="line"/>
      <point x="242" y="0" type="line"/>
      <point x="242" y="316" type="line"/>
      <point x="94" y="316" type="line"/>
    </contour>
  </outline>
</glyph>
<glyph name="heVav" format="1">
  <advance width="386.0"/>
  <unicode hex="05D5"/>
  <outline>
    <contour>
      <point x="156" y="0" type="line"/>
      <point x="304" y="0" type="line"/>
      <point x="304" y="428" type="line" smooth="yes"/>
      <point x="304" y="518"/>
      <point x="262" y="550"/>
      <point x="126" y="568" type="curve" smooth="yes"/>
      <point x="34" y="580" type="line"/>
      <point x="-2" y="408" type="line"/>
      <point x="80" y="396" type="line" smooth="yes"/>
      <point x="136" y="388"/>
      <point x="156" y="370"/>
      <point x="156" y="307" type="curve" smooth="yes"/>
    </contour>
  </outline>
</glyph>
<glyph name="heZayin" format="1">
  <advance width="432.0"/>
  <unicode hex="05D6"/>
  <outline>
    <contour>
      <point x="384" y="416" type="curve"/>
      <point x="420" y="570" type="line"/>
      <point x="285" y="570"/>
      <point x="141" y="566"/>
      <point x="46" y="580" type="curve"/>
      <point x="10" y="426" type="line"/>
      <point x="108" y="412"/>
      <point x="248" y="416"/>
    </contour>
    <contour>
      <point x="184" y="0" type="line"/>
      <point x="334" y="0" type="line"/>
      <point x="308" y="142" type="line" smooth="yes"/>
      <point x="294" y="216"/>
      <point x="278" y="270"/>
      <point x="278" y="314" type="curve" smooth="yes"/>
      <point x="278" y="370"/>
      <point x="289" y="405"/>
      <point x="316" y="420" type="curve"/>
      <point x="166" y="420" type="line"/>
      <point x="141" y="405"/>
      <point x="130" y="368"/>
      <point x="130" y="310" type="curve" smooth="yes"/>
      <point x="130" y="268"/>
      <point x="144" y="216"/>
      <point x="158" y="142" type="curve" smooth="yes"/>
    </contour>
  </outline>
</glyph>
<glyph name="heHet" format="1">
  <advance width="732"/>
  <unicode hex="05D7"/>
  <outline>
    <contour>
      <point x="502" y="0" type="line"/>
      <point x="650" y="0" type="line"/>
      <point x="650" y="362" type="line" smooth="yes"/>
      <point x="650" y="513"/>
      <point x="577" y="568"/>
      <point x="462" y="568" type="curve"/>
      <point x="100" y="568" type="line"/>
      <point x="64" y="396" type="line"/>
      <point x="370" y="396" type="line"/>
      <point x="453" y="396"/>
      <point x="502" y="362"/>
      <point x="502" y="250" type="curve" smooth="yes"/>
    </contour>
    <contour>
      <point x="94" y="0" type="line"/>
      <point x="242" y="0" type="line"/>
      <point x="242" y="272" type="line"/>
      <point x="242" y="330"/>
      <point x="250" y="372"/>
      <point x="270" y="398" type="curve"/>
      <point x="134" y="398" type="line"/>
      <point x="112" y="370"/>
      <point x="94" y="328"/>
      <point x="94" y="254" type="curve"/>
    </contour>
  </outline>
</glyph>
<glyph name="heTet" format="1">
  <advance width="644.0"/>
  <unicode hex="05D8"/>
  <outline>
    <contour>
      <point x="164" y="-12" type="line"/>
      <point x="400" y="8"/>
      <point x="606" y="198"/>
      <point x="606" y="426" type="curve" smooth="yes"/>
      <point x="606" y="542"/>
      <point x="547" y="580"/>
      <point x="426" y="580" type="curve" smooth="yes"/>
      <point x="405" y="580"/>
      <point x="375" y="579"/>
      <point x="346" y="574" type="curve"/>
      <point x="312" y="400" type="line"/>
      <point x="340" y="405"/>
      <point x="363" y="406"/>
      <point x="382" y="406" type="curve" smooth="yes"/>
      <point x="418" y="406"/>
      <point x="438" y="386"/>
      <point x="438" y="346" type="curve" smooth="yes"/>
      <point x="438" y="266"/>
      <point x="374" y="194"/>
      <point x="264" y="184" type="curve"/>
      <point x="160" y="574" type="line"/>
      <point x="12" y="538" type="line"/>
    </contour>
  </outline>
</glyph>
<glyph name="heYod" format="1">
  <advance width="366.0"/>
  <unicode hex="05D9"/>
  <outline>
    <contour>
      <point x="224" y="130" type="line"/>
      <point x="274" y="230"/>
      <point x="304" y="322"/>
      <point x="304" y="414" type="curve" smooth="yes"/>
      <point x="304" y="518"/>
      <point x="266" y="550"/>
      <point x="156" y="564" type="curve" smooth="yes"/>
      <point x="34" y="580" type="line"/>
      <point x="-2" y="408" type="line"/>
      <point x="82" y="396" type="line" smooth="yes"/>
      <point x="145" y="387"/>
      <point x="156" y="376"/>
      <point x="156" y="334" type="curve" smooth="yes"/>
      <point x="156" y="292"/>
      <point x="126" y="230"/>
      <point x="96" y="176" type="curve"/>
    </contour>
  </outline>
</glyph>
<glyph name="heKafFin" format="2">
	<unicode hex="05DA"/>
	<advance width="562"/>
	<outline>
		<contour>
			<point x="342" y="-200" type="line"/>
			<point x="490" y="-200" type="line"/>
			<point x="490" y="352" type="line" smooth="yes"/>
			<point x="490" y="508"/>
			<point x="406" y="568"/>
			<point x="284" y="568" type="curve" smooth="yes"/>
			<point x="14" y="568" type="line"/>
			<point x="14" y="396" type="line"/>
			<point x="212" y="396" type="line" smooth="yes"/>
			<point x="292" y="396"/>
			<point x="342" y="368"/>
			<point x="342" y="270" type="curve" smooth="yes"/>
		</contour>
	</outline>
</glyph>
<glyph name="heKaf" format="1">
  <advance width="636"/>
  <unicode hex="05DB"/>
  <outline>
    <contour>
      <point x="38" y="-12" type="line"/>
      <point x="179" y="0"/>
      <point x="338" y="0"/>
      <point x="554" y="0" type="curve"/>
      <point x="554" y="302" type="line"/>
      <point x="554" y="486"/>
      <point x="458" y="568"/>
      <point x="298" y="568" type="curve" smooth="yes"/>
      <point x="100" y="568" type="line"/>
      <point x="64" y="396" type="line"/>
      <point x="218" y="396" type="line" smooth="yes"/>
      <point x="352" y="396"/>
      <point x="406" y="344"/>
      <point x="406" y="200" type="curve"/>
      <point x="406" y="162" type="line"/>
      <point x="273" y="160"/>
      <point x="161" y="158"/>
      <point x="74" y="150" type="curve"/>
    </contour>
  </outline>
</glyph>
<glyph name="heLamed" format="1">
  <advance width="552"/>
  <unicode hex="05DC"/>
  <outline>
    <contour>
      <point x="142" y="-12" type="line"/>
      <point x="425" y="98"/>
      <point x="514" y="264"/>
      <point x="514" y="428" type="curve" smooth="yes"/>
      <point x="514" y="526"/>
      <point x="462" y="568"/>
      <point x="302" y="568" type="curve" smooth="yes"/>
      <point x="196" y="568" type="line"/>
      <point x="196" y="742" type="line"/>
      <point x="48" y="742" type="line"/>
      <point x="48" y="396" type="line"/>
      <point x="266" y="396" type="line" smooth="yes"/>
      <point x="324" y="396"/>
      <point x="346" y="386"/>
      <point x="346" y="346" type="curve" smooth="yes"/>
      <point x="346" y="281"/>
      <point x="264" y="204"/>
      <point x="86" y="164" type="curve"/>
    </contour>
  </outline>
</glyph>
<glyph name="heMemFin" format="1">
  <advance width="726"/>
  <unicode hex="05DD"/>
  <outline>
    <contour>
      <point x="168" y="0" type="line"/>
      <point x="644" y="0" type="line"/>
      <point x="644" y="362" type="line" smooth="yes"/>
      <point x="644" y="514"/>
      <point x="571" y="568"/>
      <point x="458" y="568" type="curve"/>
      <point x="100" y="568" type="line"/>
      <point x="64" y="396" type="line"/>
      <point x="366" y="396" type="line"/>
      <point x="446" y="396"/>
      <point x="496" y="362"/>
      <point x="496" y="250" type="curve" smooth="yes"/>
      <point x="496" y="172" type="line"/>
      <point x="168" y="172" type="line"/>
    </contour>
    <contour>
      <point x="94" y="0" type="line"/>
      <point x="242" y="0" type="line"/>
      <point x="242" y="272" type="line"/>
      <point x="242" y="330"/>
      <point x="250" y="372"/>
      <point x="270" y="398" type="curve"/>
      <point x="134" y="398" type="line"/>
      <point x="112" y="370"/>
      <point x="94" y="328"/>
      <point x="94" y="254" type="curve"/>
    </contour>
  </outline>
</glyph>
<glyph name="heMem" format="1">
  <advance width="770"/>
  <unicode hex="05DE"/>
  <outline>
    <contour>
      <point x="368" y="-12" type="line"/>
      <point x="450" y="-1"/>
      <point x="564" y="0"/>
      <point x="680" y="0" type="curve"/>
      <point x="684" y="68"/>
      <point x="688" y="144"/>
      <point x="688" y="200" type="curve" smooth="yes"/>
      <point x="688" y="483"/>
      <point x="598" y="580"/>
      <point x="446" y="580" type="curve" smooth="yes"/>
      <point x="233" y="580"/>
      <point x="100" y="297"/>
      <point x="100" y="0" type="curve"/>
      <point x="248" y="0" type="line"/>
      <point x="248" y="213"/>
      <point x="320" y="406"/>
      <point x="424" y="406" type="curve" smooth="yes"/>
      <point x="493" y="406"/>
      <point x="536" y="356"/>
      <point x="536" y="200" type="curve" smooth="yes"/>
      <point x="536" y="191"/>
      <point x="535" y="182"/>
      <point x="534" y="172" type="curve"/>
      <point x="482" y="172"/>
      <point x="420" y="167"/>
      <point x="374" y="162" type="curve"/>
    </contour>
    <contour>
      <point x="160" y="314" type="curve"/>
      <point x="280" y="370" type="line"/>
      <point x="268" y="444"/>
      <point x="234" y="532"/>
      <point x="204" y="580" type="curve"/>
      <point x="58" y="530" type="line"/>
      <point x="100" y="474"/>
      <point x="146" y="378"/>
    </contour>
  </outline>
</glyph>
<glyph name="heNunFin" format="1">
  <advance width="406"/>
  <unicode hex="05DF"/>
  <outline>
    <contour>
      <point x="176" y="-200" type="line"/>
      <point x="324" y="-200" type="line"/>
      <point x="324" y="428" type="line" smooth="yes"/>
      <point x="324" y="518"/>
      <point x="277" y="548"/>
      <point x="126" y="568" type="curve" smooth="yes"/>
      <point x="34" y="580" type="line"/>
      <point x="-2" y="408" type="line"/>
      <point x="80" y="396" type="line" smooth="yes"/>
      <point x="152" y="385"/>
      <point x="176" y="370"/>
      <point x="176" y="307" type="curve" smooth="yes"/>
    </contour>
  </outline>
</glyph>
<glyph name="heNun" format="1">
  <advance width="472"/>
  <unicode hex="05E0"/>
  <outline>
    <contour>
      <point x="48" y="-12" type="line"/>
      <point x="162" y="1"/>
      <point x="276" y="0"/>
      <point x="390" y="0" type="curve"/>
      <point x="390" y="426" type="line"/>
      <point x="389" y="515"/>
      <point x="348" y="546"/>
      <point x="218" y="564" type="curve" smooth="yes"/>
      <point x="100" y="580" type="line"/>
      <point x="64" y="408" type="line"/>
      <point x="172" y="390" type="line" smooth="yes"/>
      <point x="223" y="382"/>
      <point x="242" y="364"/>
      <point x="242" y="302" type="curve" smooth="yes"/>
      <point x="242" y="172" type="line"/>
      <point x="178" y="171"/>
      <point x="115" y="167"/>
      <point x="54" y="160" type="curve"/>
    </contour>
  </outline>
</glyph>
<glyph name="heSamekh" format="1">
  <advance width="710"/>
  <unicode hex="05E1"/>
  <outline>
    <contour>
      <point x="242" y="-12" type="curve"/>
      <point x="472" y="10"/>
      <point x="672" y="198"/>
      <point x="672" y="428" type="curve" smooth="yes"/>
      <point x="672" y="526"/>
      <point x="620" y="568"/>
      <point x="460" y="568" type="curve" smooth="yes"/>
      <point x="54" y="568" type="line"/>
      <point x="18" y="396" type="line"/>
      <point x="424" y="396" type="line" smooth="yes"/>
      <point x="482" y="396"/>
      <point x="504" y="386"/>
      <point x="504" y="346" type="curve" smooth="yes"/>
      <point x="504" y="260"/>
      <point x="443" y="195"/>
      <point x="334" y="186" type="curve"/>
      <point x="300" y="232"/>
      <point x="270" y="298"/>
      <point x="270" y="350" type="curve" smooth="yes"/>
      <point x="270" y="384"/>
      <point x="280" y="402"/>
      <point x="300" y="438" type="curve"/>
      <point x="154" y="458" type="line"/>
      <point x="136" y="430"/>
      <point x="112" y="393"/>
      <point x="112" y="334" type="curve" smooth="yes"/>
      <point x="112" y="260"/>
      <point x="176" y="104"/>
    </contour>
  </outline>
</glyph>
<glyph name="heAyin" format="1">
  <advance width="680"/>
  <unicode hex="05E2"/>
  <outline>
    <contour>
      <point x="40" y="-32" type="line"/>
      <point x="89" y="-28"/>
      <point x="162" y="-21"/>
      <point x="242" y="-2" type="curve" smooth="yes"/>
      <point x="478" y="55"/>
      <point x="642" y="214"/>
      <point x="642" y="406" type="curve" smooth="yes"/>
      <point x="642" y="558"/>
      <point x="582" y="580"/>
      <point x="438" y="580" type="curve" smooth="yes"/>
      <point x="422" y="580"/>
      <point x="400" y="578"/>
      <point x="378" y="574" type="curve"/>
      <point x="344" y="400" type="line"/>
      <point x="368" y="404"/>
      <point x="388" y="406"/>
      <point x="404" y="406" type="curve" smooth="yes"/>
      <point x="452" y="406"/>
      <point x="474" y="394"/>
      <point x="474" y="346" type="curve" smooth="yes"/>
      <point x="474" y="261"/>
      <point x="394" y="198"/>
      <point x="278" y="168" type="curve" smooth="yes"/>
      <point x="204" y="148"/>
      <point x="126" y="145"/>
      <point x="76" y="140" type="curve"/>
    </contour>
    <contour>
      <point x="219" y="16" type="curve"/>
      <point x="362" y="42" type="line"/>
      <point x="338" y="230"/>
      <point x="272" y="444"/>
      <point x="212" y="574" type="curve"/>
      <point x="62" y="538" type="line"/>
      <point x="123" y="404"/>
      <point x="196" y="198"/>
    </contour>
  </outline>
</glyph>
<glyph name="hePeFin" format="1">
  <advance width="628"/>
  <unicode hex="05E3"/>
  <outline>
    <contour>
      <point x="398" y="-200" type="line"/>
      <point x="546" y="-200" type="line"/>
      <point x="546" y="302" type="line" smooth="yes"/>
      <point x="546" y="469"/>
      <point x="495" y="527"/>
      <point x="352" y="546" type="curve" smooth="yes"/>
      <point x="100" y="580" type="line"/>
      <point x="62" y="438"/>
      <point x="54" y="404"/>
      <point x="54" y="350" type="curve" smooth="yes"/>
      <point x="54" y="200"/>
      <point x="115" y="160"/>
      <point x="286" y="140" type="curve"/>
      <point x="332" y="310" type="line"/>
      <point x="229" y="320"/>
      <point x="206" y="333"/>
      <point x="206" y="374" type="curve" smooth="yes"/>
      <point x="206" y="382"/>
      <point x="208" y="390"/>
      <point x="212" y="398" type="curve"/>
      <point x="282" y="388" type="line" smooth="yes"/>
      <point x="367" y="376"/>
      <point x="398" y="358"/>
      <point x="398" y="292" type="curve" smooth="yes"/>
    </contour>
  </outline>
</glyph>
<glyph name="hePe" format="1">
  <advance width="658"/>
  <unicode hex="05E4"/>
  <outline>
    <contour>
      <point x="48" y="-12" type="line"/>
      <point x="186" y="2"/>
      <point x="364" y="0"/>
      <point x="576" y="0" type="curve"/>
      <point x="576" y="302" type="line" smooth="yes"/>
      <point x="576" y="469"/>
      <point x="525" y="529"/>
      <point x="382" y="546" type="curve" smooth="yes"/>
      <point x="100" y="580" type="line"/>
      <point x="63" y="438"/>
      <point x="54" y="404"/>
      <point x="54" y="350" type="curve" smooth="yes"/>
      <point x="54" y="236"/>
      <point x="116" y="200"/>
      <point x="286" y="180" type="curve"/>
      <point x="332" y="350" type="line"/>
      <point x="230" y="360"/>
      <point x="206" y="362"/>
      <point x="206" y="384" type="curve" smooth="yes"/>
      <point x="206" y="388"/>
      <point x="206" y="392"/>
      <point x="208" y="398" type="curve"/>
      <point x="282" y="388" type="line" smooth="yes"/>
      <point x="389" y="374"/>
      <point x="428" y="358"/>
      <point x="428" y="292" type="curve" smooth="yes"/>
      <point x="428" y="172" type="line"/>
      <point x="284" y="170"/>
      <point x="147" y="170"/>
      <point x="54" y="160" type="curve"/>
    </contour>
  </outline>
</glyph>
<glyph name="heTsadi" format="1">
  <advance width="718"/>
  <unicode hex="05E6"/>
  <outline>
    <contour>
      <point x="488" y="210" type="line"/>
      <point x="572" y="300"/>
      <point x="614" y="370"/>
      <point x="614" y="458" type="curve" smooth="yes"/>
      <point x="614" y="546"/>
      <point x="555" y="580"/>
      <point x="430" y="580" type="curve" smooth="yes"/>
      <point x="410" y="580"/>
      <point x="386" y="580"/>
      <point x="354" y="574" type="curve"/>
      <point x="350" y="400" type="line"/>
      <point x="384" y="406"/>
      <point x="406" y="406"/>
      <point x="426" y="406" type="curve" smooth="yes"/>
      <point x="453" y="406"/>
      <point x="466" y="397"/>
      <point x="466" y="370" type="curve" smooth="yes"/>
      <point x="466" y="341"/>
      <point x="444" y="312"/>
      <point x="376" y="266" type="curve"/>
    </contour>
    <contour>
      <point x="48" y="-12" type="line"/>
      <point x="197" y="2"/>
      <point x="376" y="0"/>
      <point x="596" y="0" type="curve"/>
      <point x="626" y="172" type="line"/>
      <point x="396" y="169"/>
      <point x="204" y="177"/>
      <point x="54" y="160" type="curve"/>
    </contour>
    <contour>
      <point x="496" y="80" type="curve"/>
      <point x="626" y="172" type="line"/>
      <point x="418" y="276"/>
      <point x="246" y="434"/>
      <point x="148" y="580" type="curve"/>
      <point x="18" y="488" type="line"/>
      <point x="118" y="336"/>
      <point x="292" y="178"/>
    </contour>
  </outline>
</glyph>
<glyph name="heQof" format="1">
  <advance width="664"/>
  <unicode hex="05E7"/>
  <outline>
    <contour>
      <point x="354" y="-12" type="line"/>
      <point x="554" y="110"/>
      <point x="626" y="264"/>
      <point x="626" y="428" type="curve" smooth="yes"/>
      <point x="626" y="526"/>
      <point x="574" y="568"/>
      <point x="414" y="568" type="curve"/>
      <point x="100" y="568" type="line"/>
      <point x="64" y="396" type="line"/>
      <point x="378" y="396" type="line"/>
      <point x="436" y="396"/>
      <point x="458" y="386"/>
      <point x="458" y="346" type="curve" smooth="yes"/>
      <point x="458" y="281"/>
      <point x="394" y="226"/>
      <point x="298" y="164" type="curve"/>
    </contour>
    <contour>
      <point x="94" y="-200" type="line"/>
      <point x="242" y="-200" type="line"/>
      <point x="242" y="316" type="line"/>
      <point x="94" y="316" type="line"/>
    </contour>
  </outline>
</glyph>
<glyph name="heResh" format="1">
  <advance width="588"/>
  <unicode hex="05E8"/>
  <outline>
    <contour>
      <point x="358" y="0" type="line"/>
      <point x="506" y="0" type="line"/>
      <point x="506" y="362" type="line" smooth="yes"/>
      <point x="506" y="511"/>
      <point x="430" y="568"/>
      <point x="320" y="568" type="curve"/>
      <point x="50" y="568" type="line"/>
      <point x="14" y="396" type="line"/>
      <point x="228" y="396" type="line"/>
      <point x="308" y="396"/>
      <point x="358" y="363"/>
      <point x="358" y="250" type="curve" smooth="yes"/>
    </contour>
  </outline>
</glyph>
<glyph name="heShin" format="2">
	<unicode hex="05E9"/>
	<advance width="774"/>
	<outline>
		<contour>
			<point x="384" y="-12" type="curve" smooth="yes"/>
			<point x="586" y="-12"/>
			<point x="726" y="122"/>
			<point x="726" y="354" type="curve" smooth="yes"/>
			<point x="726" y="504"/>
			<point x="677" y="568"/>
			<point x="528" y="568" type="curve" smooth="yes"/>
			<point x="496" y="568" type="line"/>
			<point x="496" y="396" type="line"/>
			<point x="524" y="396" type="line" smooth="yes"/>
			<point x="564" y="396"/>
			<point x="578" y="370"/>
			<point x="578" y="314" type="curve" smooth="yes"/>
			<point x="578" y="215"/>
			<point x="502" y="162"/>
			<point x="402" y="162" type="curve" smooth="yes"/>
			<point x="285" y="162"/>
			<point x="212" y="205"/>
			<point x="212" y="348" type="curve" smooth="yes"/>
			<point x="212" y="568" type="line"/>
			<point x="64" y="568" type="line"/>
			<point x="64" y="284" type="line" smooth="yes"/>
			<point x="64" y="76"/>
			<point x="197" y="-12"/>
		</contour>
		<contour>
			<point x="396" y="130" type="line"/>
			<point x="445" y="230"/>
			<point x="476" y="321"/>
			<point x="476" y="414" type="curve" smooth="yes"/>
			<point x="476" y="522"/>
			<point x="437" y="568"/>
			<point x="318" y="568" type="curve" smooth="yes"/>
			<point x="266" y="568" type="line"/>
			<point x="266" y="396" type="line"/>
			<point x="274" y="396" type="line" smooth="yes"/>
			<point x="329" y="396"/>
			<point x="348" y="376"/>
			<point x="348" y="334" type="curve" smooth="yes"/>
			<point x="348" y="292"/>
			<point x="318" y="230"/>
			<point x="288" y="176" type="curve"/>
		</contour>
	</outline>
</glyph>
<glyph name="heTav" format="1">
  <advance width="694"/>
  <unicode hex="05EA"/>
  <outline>
    <contour>
      <point x="42" y="-12" type="line"/>
      <point x="114" y="-4"/>
      <point x="268" y="0"/>
      <point x="318" y="0" type="curve"/>
      <point x="310" y="130"/>
      <point x="304" y="240"/>
      <point x="304" y="332" type="curve" smooth="yes"/>
      <point x="304" y="412"/>
      <point x="320" y="483"/>
      <point x="344" y="518" type="curve"/>
      <point x="196" y="518" type="line"/>
      <point x="173" y="483"/>
      <point x="156" y="414"/>
      <point x="156" y="334" type="curve" smooth="yes"/>
      <point x="156" y="290"/>
      <point x="158" y="238"/>
      <point x="164" y="172" type="curve"/>
      <point x="144" y="170"/>
      <point x="102" y="164"/>
      <point x="78" y="160" type="curve"/>
    </contour>
    <contour>
      <point x="550" y="0" type="line"/>
      <point x="698" y="0" type="line"/>
      <point x="698" y="362" type="line" smooth="yes"/>
      <point x="698" y="514"/>
      <point x="626" y="568"/>
      <point x="512" y="568" type="curve"/>
      <point x="106" y="568" type="line"/>
      <point x="70" y="396" type="line"/>
      <point x="420" y="396" type="line"/>
      <point x="498" y="396"/>
      <point x="550" y="362"/>
      <point x="550" y="250" type="curve" smooth="yes"/>
    </contour>
  </outline>
</glyph>
<glyph name="Aring" format="1">
  <advance width="584"/>
  <outline>
    <component base="A"/>
    <component base="ringcmb.cap" xOffset="288"/>
    <contour>
      <point x="484" y="0" type="move" name="ogonekUC"/>
    </contour>
  </outline>
</glyph>
<glyph name="Eacute" format="1">
  <advance width="556"/>
  <outline>
    <component base="E"/>
    <component base="acutecmb.cap" xOffset="290"/>
    <contour>
      <point x="396" y="0" type="move" name="ogonekUC"/>
    </contour>
  </outline>
</glyph>
<glyph name="Eth" format="1">
	<advance width="668"/>
	<outline>
		<contour>
			<point x="24" y="294" type="line"/>
			<point x="386" y="294" type="line"/>
			<point x="386" y="374" type="line"/>
			<point x="100" y="374" type="line"/>
			<point x="24" y="368" type="line"/>
		</contour>
		<component base="D" xOffset="26"/>
		<contour>
			<point name="aboveUC" x="334" y="670" type="move"/>
		</contour>
		<contour>
			<point name="belowLC" x="334" y="-20" type="move"/>
		</contour>
	</outline>
</glyph>
<glyph name="Odieresis" format="1">
  <advance width="692"/>
  <outline>
    <component base="O"/>
    <component base="dieresiscmb.cap" xOffset="346"/>
    <contour>
      <point x="346" y="0" type="move" name="ogonekUC"/>
    </contour>
  </outline>
</glyph>
<glyph name="asciicircum.lat" format="1">
  <advance width="540"/>
  <outline>
    <contour>
      <point x="46" y="270" type="line"/>
      <point x="186" y="270" type="line"/>
      <point x="224" y="380" type="line"/>
      <point x="268" y="516" type="line"/>
      <point x="272" y="516" type="line"/>
      <point x="316" y="380" type="line"/>
      <point x="354" y="270" type="line"/>
      <point x="494" y="270" type="line"/>
      <point x="338" y="670" type="line"/>
      <point x="202" y="670" type="line"/>
    </contour>
  </outline>
</glyph>
<glyph name="backslash.lat" format="2">
	<advance width="334"/>
	<outline>
		<contour>
			<point x="210" y="-160" type="line"/>
			<point x="320" y="-160" type="line"/>
			<point x="144" y="710" type="line"/>
			<point x="34" y="710" type="line"/>
		</contour>
	</outline>
</glyph>
<glyph name="bracketleft.lat" format="1">
  <advance width="360"/>
  <outline>
    <contour>
      <point x="84" y="-152" type="line"/>
      <point x="308" y="-152" type="line"/>
      <point x="308" y="-62" type="line"/>
      <point x="212" y="-62" type="line"/>
      <point x="212" y="618" type="line"/>
      <point x="308" y="618" type="line"/>
      <point x="308" y="708" type="line"/>
      <point x="84" y="708" type="line"/>
    </contour>
  </outline>
</glyph>
<glyph name="bracketright.lat" format="1">
	<advance width="360"/>
	<outline>
		<contour>
			<point x="52" y="-152" type="line"/>
			<point x="276" y="-152" type="line"/>
			<point x="276" y="708" type="line"/>
			<point x="52" y="708" type="line"/>
			<point x="52" y="618" type="line"/>
			<point x="148" y="618" type="line"/>
			<point x="148" y="-62" type="line"/>
			<point x="52" y="-62" type="line"/>
		</contour>
	</outline>
</glyph>
<glyph name="dagger.lat" format="1">
	<advance width="532"/>
	<outline>
		<contour>
			<point x="198" y="-80" type="line"/>
			<point x="334" y="-80" type="line"/>
			<point x="324" y="418" type="line"/>
			<point x="492" y="408" type="line"/>
			<point x="492" y="544" type="line"/>
			<point x="324" y="534" type="line"/>
			<point x="334" y="712" type="line"/>
			<point x="198" y="712" type="line"/>
			<point x="208" y="534" type="line"/>
			<point x="40" y="544" type="line"/>
			<point x="40" y="408" type="line"/>
			<point x="208" y="418" type="line"/>
		</contour>
	</outline>
</glyph>
<glyph name="divisionslash.lat" format="1">
  <advance width="100"/>
  <outline>
    <contour>
      <point x="-172" y="-12" type="line"/>
      <point x="-76" y="-12" type="line"/>
      <point x="272" y="662" type="line"/>
      <point x="176" y="662" type="line"/>
    </contour>
  </outline>
</glyph>
<glyph name="dotlessi" format="1">
	<advance width="288"/>
	<outline>
		<contour>
			<point x="58" y="0" type="line"/>
			<point x="230" y="0" type="line"/>
			<point x="230" y="500" type="line"/>
			<point x="58" y="500" type="line"/>
		</contour>
		<contour>
			<point name="baseLC" x="144" y="0" type="move"/>
		</contour>
		<contour>
			<point name="ogonekLC" x="190" y="0" type="move"/>
		</contour>
		<contour>
			<point name="belowLC" x="144" y="-20" type="move"/>
		</contour>
		<contour>
			<point name="aboveLC" x="144" y="520" type="move"/>
		</contour>
	</outline>
</glyph>
<glyph name="e" format="1">
  <advance width="526"/>
  <outline>
    <contour>
      <point x="290" y="-12" type="curve" smooth="yes"/>
      <point x="346" y="-12"/>
      <point x="418" y="8"/>
      <point x="472" y="46" type="curve"/>
      <point x="416" y="148" type="line"/>
      <point x="380" y="128"/>
      <point x="348" y="118"/>
      <point x="314" y="118" type="curve" smooth="yes"/>
      <point x="254" y="118"/>
      <point x="188" y="144"/>
      <point x="188" y="250" type="curve" smooth="yes"/>
      <point x="188" y="350"/>
      <point x="232" y="382"/>
      <point x="276" y="382" type="curve" smooth="yes"/>
      <point x="328" y="382"/>
      <point x="344" y="348"/>
      <point x="344" y="310" type="curve"/>
      <point x="166" y="310" type="line"/>
      <point x="168" y="198" type="line"/>
      <point x="483" y="198" type="line"/>
      <point x="486" y="210"/>
      <point x="490" y="240"/>
      <point x="490" y="270" type="curve" smooth="yes"/>
      <point x="490" y="404"/>
      <point x="420" y="512"/>
      <point x="272" y="512" type="curve" smooth="yes"/>
      <point x="150" y="512"/>
      <point x="32" y="412"/>
      <point x="32" y="250" type="curve" smooth="yes"/>
      <point x="32" y="84"/>
      <point x="144" y="-12"/>
    </contour>
    <contour>
      <point x="270" y="0" type="move" name="baseLC"/>
    </contour>
    <contour>
      <point x="350" y="0" type="move" name="ogonekLC"/>
    </contour>
    <contour>
      <point x="270" y="-20" type="move" name="belowLC"/>
    </contour>
    <contour>
      <point x="280" y="520" type="move" name="aboveLC"/>
    </contour>
  </outline>
</glyph>
<glyph name="emdash.lat" format="2">
	<advance width="800"/>
	<outline>
		<contour>
			<point x="44" y="200" type="line"/>
			<point x="756" y="200" type="line"/>
			<point x="756" y="308" type="line"/>
			<point x="44" y="308" type="line"/>
		</contour>
	</outline>
</glyph>
<glyph name="endash.lat" format="1">
	<advance width="480"/>
	<outline>
		<contour>
			<point x="44" y="200" type="line"/>
			<point x="436" y="200" type="line"/>
			<point x="436" y="308" type="line"/>
			<point x="44" y="308" type="line"/>
		</contour>
	</outline>
</glyph>
<glyph name="heTsadiFin" format="1">
	<advance width="500"/>
	<outline>
		<contour>
			<point x="425" y="-200" type="line"/>
			<point x="91" y="545" type="line"/>
			<point x="57" y="545" type="line"/>
			<point x="390" y="-200" type="line"/>
		</contour>
		<contour>
			<point x="346" y="545" type="line"/>
			<point x="200" y="235" type="line"/>
			<point x="219" y="200" type="line"/>
			<point x="378" y="545" type="line"/>
		</contour>
	</outline>
</glyph>
<glyph name="hyphentwo.lat" format="1">
  <advance width="340"/>
  <outline>
    <contour>
      <point x="44" y="194" type="line"/>
      <point x="296" y="194" type="line"/>
      <point x="296" y="314" type="line"/>
      <point x="44" y="314" type="line"/>
    </contour>
  </outline>
</glyph>
<glyph name="i" format="1">
  <advance width="288"/>
  <outline>
    <component base="dotlessi"/>
    <component base="dotaccentcmb" xOffset="144"/>
    <contour>
      <point x="144" y="0" type="move" name="baseLC"/>
    </contour>
    <contour>
      <point x="144" y="730" type="move" name="aboveUC"/>
    </contour>
    <contour>
      <point x="190" y="0" type="move" name="ogonekLC"/>
    </contour>
    <contour>
      <point x="144" y="-20" type="move" name="belowLC"/>
    </contour>
  </outline>
</glyph>
<glyph name="j" format="1">
	<advance width="290"/>
	<outline>
		<component base="dotlessj"/>
		<component base="dotaccentcmb" xOffset="146"/>
		<contour>
			<point name="aboveUC" x="146" y="730" type="move"/>
		</contour>
		<contour>
			<point name="belowLC" x="145" y="-20" type="move"/>
		</contour>
	</outline>
</glyph>
<glyph name="odieresis" format="1">
  <advance width="560"/>
  <outline>
    <component base="o"/>
    <component base="dieresiscmb" xOffset="280"/>
    <contour>
      <point x="280" y="0" type="move" name="ogonekLC"/>
    </contour>
  </outline>
</glyph>
<glyph name="onehalf.lat" format="1">
  <advance width="860"/>
  <outline>
    <contour>
      <point x="162" y="0" type="line"/>
      <point x="288" y="0" type="line"/>
      <point x="288" y="390" type="line"/>
      <point x="190" y="390" type="line"/>
      <point x="154" y="366"/>
      <point x="130" y="354"/>
      <point x="72" y="346" type="curve"/>
      <point x="72" y="270" type="line"/>
      <point x="162" y="270" type="line"/>
    </contour>
    <contour>
      <point x="208" y="-12" type="line"/>
      <point x="304" y="-12" type="line"/>
      <point x="652" y="662" type="line"/>
      <point x="556" y="662" type="line"/>
    </contour>
    <contour>
      <point x="522" y="0" type="line"/>
      <point x="820" y="0" type="line"/>
      <point x="820" y="104" type="line"/>
      <point x="720" y="104" type="line"/>
      <point x="764" y="156"/>
      <point x="808" y="209"/>
      <point x="808" y="268" type="curve" smooth="yes"/>
      <point x="808" y="352"/>
      <point x="748" y="402"/>
      <point x="658" y="402" type="curve" smooth="yes"/>
      <point x="596" y="402"/>
      <point x="546" y="376"/>
      <point x="502" y="320" type="curve"/>
      <point x="572" y="256" type="line"/>
      <point x="594" y="284"/>
      <point x="614" y="300"/>
      <point x="638" y="300" type="curve" smooth="yes"/>
      <point x="670" y="300"/>
      <point x="688" y="280"/>
      <point x="688" y="246" type="curve" smooth="yes"/>
      <point x="688" y="202"/>
      <point x="614" y="138"/>
      <point x="522" y="66" type="curve"/>
    </contour>
  </outline>
</glyph>
<glyph name="onequarter.lat" format="1">
  <advance width="860"/>
  <outline>
    <contour>
      <point x="162" y="0" type="line"/>
      <point x="288" y="0" type="line"/>
      <point x="288" y="390" type="line"/>
      <point x="190" y="390" type="line"/>
      <point x="154" y="366"/>
      <point x="130" y="354"/>
      <point x="72" y="346" type="curve"/>
      <point x="72" y="270" type="line"/>
      <point x="162" y="270" type="line"/>
    </contour>
    <contour>
      <point x="208" y="-12" type="line"/>
      <point x="304" y="-12" type="line"/>
      <point x="652" y="662" type="line"/>
      <point x="556" y="662" type="line"/>
    </contour>
    <contour>
      <point x="692" y="0" type="line"/>
      <point x="802" y="0" type="line"/>
      <point x="802" y="390" type="line"/>
      <point x="644" y="390" type="line"/>
      <point x="512" y="142" type="line"/>
      <point x="512" y="80" type="line"/>
      <point x="860" y="80" type="line"/>
      <point x="860" y="160" type="line"/>
      <point x="624" y="160" type="line"/>
      <point x="658" y="234" type="line"/>
      <point x="694" y="310" type="line"/>
      <point x="698" y="310" type="line"/>
      <point x="692" y="190" type="line"/>
    </contour>
  </outline>
</glyph>
<glyph name="parenright.lat" format="1">
	<advance width="360"/>
	<outline>
		<contour>
			<point x="160" y="-180" type="line"/>
			<point x="244" y="-42"/>
			<point x="292" y="102"/>
			<point x="292" y="278" type="curve" smooth="yes"/>
			<point x="292" y="454"/>
			<point x="244" y="598"/>
			<point x="160" y="736" type="curve"/>
			<point x="52" y="692" type="line"/>
			<point x="124" y="562"/>
			<point x="154" y="416"/>
			<point x="154" y="278" type="curve" smooth="yes"/>
			<point x="154" y="140"/>
			<point x="124" y="-6"/>
			<point x="52" y="-136" type="curve"/>
		</contour>
	</outline>
</glyph>
<glyph name="periodcentered.lat" format="1">
	<advance width="320"/>
	<outline>
		<contour>
			<point x="160" y="216" type="curve" smooth="yes"/>
			<point x="218" y="216"/>
			<point x="260" y="262"/>
			<point x="260" y="320" type="curve" smooth="yes"/>
			<point x="260" y="378"/>
			<point x="218" y="424"/>
			<point x="160" y="424" type="curve" smooth="yes"/>
			<point x="102" y="424"/>
			<point x="60" y="378"/>
			<point x="60" y="320" type="curve" smooth="yes"/>
			<point x="60" y="262"/>
			<point x="102" y="216"/>
		</contour>
	</outline>
</glyph>
<glyph name="perthousand.lat" format="1">
	<advance width="1270"/>
	<outline>
		<contour>
			<point x="-172" y="-12" type="line"/>
			<point x="-76" y="-12" type="line"/>
			<point x="272" y="662" type="line"/>
			<point x="176" y="662" type="line"/>
		</contour>
		<contour>
			<point x="290" y="-12" type="curve" smooth="yes"/>
			<point x="386" y="-12"/>
			<point x="458" y="66"/>
			<point x="458" y="196" type="curve" smooth="yes"/>
			<point x="458" y="326"/>
			<point x="386" y="402"/>
			<point x="290" y="402" type="curve" smooth="yes"/>
			<point x="194" y="402"/>
			<point x="122" y="326"/>
			<point x="122" y="196" type="curve" smooth="yes"/>
			<point x="122" y="66"/>
			<point x="194" y="-12"/>
		</contour>
		<contour>
			<point x="290" y="82" type="curve" smooth="yes"/>
			<point x="264" y="82"/>
			<point x="240" y="108"/>
			<point x="240" y="196" type="curve" smooth="yes"/>
			<point x="240" y="284"/>
			<point x="264" y="308"/>
			<point x="290" y="308" type="curve" smooth="yes"/>
			<point x="316" y="308"/>
			<point x="340" y="284"/>
			<point x="340" y="196" type="curve" smooth="yes"/>
			<point x="340" y="108"/>
			<point x="316" y="82"/>
		</contour>
		<contour>
			<point x="670" y="-12" type="curve" smooth="yes"/>
			<point x="766" y="-12"/>
			<point x="838" y="66"/>
			<point x="838" y="196" type="curve" smooth="yes"/>
			<point x="838" y="326"/>
			<point x="766" y="402"/>
			<point x="670" y="402" type="curve" smooth="yes"/>
			<point x="574" y="402"/>
			<point x="502" y="326"/>
			<point x="502" y="196" type="curve" smooth="yes"/>
			<point x="502" y="66"/>
			<point x="574" y="-12"/>
		</contour>
		<contour>
			<point x="670" y="82" type="curve" smooth="yes"/>
			<point x="644" y="82"/>
			<point x="620" y="108"/>
			<point x="620" y="196" type="curve" smooth="yes"/>
			<point x="620" y="284"/>
			<point x="644" y="308"/>
			<point x="670" y="308" type="curve" smooth="yes"/>
			<point x="696" y="308"/>
			<point x="720" y="284"/>
			<point x="720" y="196" type="curve" smooth="yes"/>
			<point x="720" y="108"/>
			<point x="696" y="82"/>
		</contour>
		<contour>
			<point x="1050" y="-12" type="curve" smooth="yes"/>
			<point x="1146" y="-12"/>
			<point x="1218" y="66"/>
			<point x="1218" y="196" type="curve" smooth="yes"/>
			<point x="1218" y="326"/>
			<point x="1146" y="402"/>
			<point x="1050" y="402" type="curve" smooth="yes"/>
			<point x="954" y="402"/>
			<point x="882" y="326"/>
			<point x="882" y="196" type="curve" smooth="yes"/>
			<point x="882" y="66"/>
			<point x="954" y="-12"/>
		</contour>
		<contour>
			<point x="1050" y="82" type="curve" smooth="yes"/>
			<point x="1024" y="82"/>
			<point x="1000" y="108"/>
			<point x="1000" y="196" type="curve" smooth="yes"/>
			<point x="1000" y="284"/>
			<point x="1024" y="308"/>
			<point x="1050" y="308" type="curve" smooth="yes"/>
			<point x="1076" y="308"/>
			<point x="1100" y="284"/>
			<point x="1100" y="196" type="curve" smooth="yes"/>
			<point x="1100" y="108"/>
			<point x="1076" y="82"/>
		</contour>
	</outline>
</glyph>
<glyph name="pnAlf" format="2">
	<advance width="516"/>
	<outline>
		<contour>
			<point x="-10" y="532" type="line"/>
			<point x="155" y="0" type="line"/>
			<point x="361" y="0" type="line"/>
			<point x="526" y="532" type="line"/>
			<point x="346" y="532" type="line"/>
			<point x="291" y="288" type="line" smooth="yes"/>
			<point x="280" y="240"/>
			<point x="269" y="173"/>
			<point x="256" y="123" type="curve"/>
			<point x="252" y="123" type="line"/>
			<point x="241" y="174"/>
			<point x="230" y="240"/>
			<point x="219" y="288" type="curve" smooth="yes"/>
			<point x="164" y="532" type="line"/>
		</contour>
		<contour>
			<point x="118" y="438" type="line"/>
			<point x="118" y="316" type="line"/>
			<point x="397" y="316" type="line"/>
			<point x="397" y="438" type="line"/>
		</contour>
	</outline>
	<guideline x="88" y="472" angle="90" identifier="zed0uYpDtn"/>
</glyph>
<glyph name="pnDelt" format="2">
	<advance width="572"/>
	<outline>
		<contour>
			<point x="528" y="376" type="line"/>
			<point x="564" y="548" type="line"/>
			<point x="50" y="580" type="line"/>
			<point x="14" y="406" type="line"/>
		</contour>
		<contour>
			<point x="300" y="0" type="line"/>
			<point x="448" y="0" type="line"/>
			<point x="448" y="252" type="line"/>
			<point x="448" y="316"/>
			<point x="455" y="362"/>
			<point x="476" y="390" type="curve"/>
			<point x="340" y="390" type="line"/>
			<point x="317" y="361"/>
			<point x="300" y="314"/>
			<point x="300" y="234" type="curve"/>
		</contour>
	</outline>
</glyph>
<glyph name="pnHe" format="2">
	<advance width="702"/>
	<outline>
		<contour>
			<point x="472" y="0" type="line"/>
			<point x="620" y="0" type="line"/>
			<point x="620" y="430" type="line" smooth="yes"/>
			<point x="620" y="521"/>
			<point x="569" y="551"/>
			<point x="494" y="556" type="curve" smooth="yes"/>
			<point x="100" y="580" type="line"/>
			<point x="64" y="406" type="line"/>
			<point x="402" y="384" type="line" smooth="yes"/>
			<point x="445" y="381"/>
			<point x="472" y="369"/>
			<point x="472" y="318" type="curve" smooth="yes"/>
		</contour>
		<contour>
			<point x="94" y="0" type="line"/>
			<point x="242" y="0" type="line"/>
			<point x="242" y="316" type="line"/>
			<point x="94" y="316" type="line"/>
		</contour>
	</outline>
</glyph>
<glyph name="pnHet" format="2">
	<advance width="732"/>
	<outline>
		<contour>
			<point x="502" y="0" type="line"/>
			<point x="650" y="0" type="line"/>
			<point x="650" y="428" type="line" smooth="yes"/>
			<point x="650" y="520"/>
			<point x="600" y="549"/>
			<point x="522" y="554" type="curve" smooth="yes"/>
			<point x="100" y="580" type="line"/>
			<point x="64" y="406" type="line"/>
			<point x="430" y="382" type="line" smooth="yes"/>
			<point x="475" y="379"/>
			<point x="502" y="367"/>
			<point x="502" y="316" type="curve" smooth="yes"/>
		</contour>
		<contour>
			<point x="94" y="0" type="line"/>
			<point x="242" y="0" type="line"/>
			<point x="242" y="272" type="line"/>
			<point x="242" y="335"/>
			<point x="249" y="381"/>
			<point x="270" y="408" type="curve"/>
			<point x="134" y="408" type="line"/>
			<point x="111" y="379"/>
			<point x="94" y="333"/>
			<point x="94" y="254" type="curve"/>
		</contour>
	</outline>
</glyph>
<glyph name="pnKaf" format="2">
	<advance width="636"/>
	<outline>
		<contour>
			<point x="38" y="0" type="line"/>
			<point x="554" y="0" type="line"/>
			<point x="554" y="302" type="line"/>
			<point x="554" y="486"/>
			<point x="458" y="568"/>
			<point x="298" y="568" type="curve" smooth="yes"/>
			<point x="100" y="568" type="line"/>
			<point x="64" y="396" type="line"/>
			<point x="218" y="396" type="line" smooth="yes"/>
			<point x="352" y="396"/>
			<point x="406" y="344"/>
			<point x="406" y="200" type="curve"/>
			<point x="406" y="162" type="line"/>
			<point x="74" y="162" type="line"/>
		</contour>
	</outline>
</glyph>
<glyph name="pnPe" format="2">
	<advance width="658"/>
	<outline>
		<contour>
			<point x="48" y="0" type="line"/>
			<point x="576" y="0" type="line"/>
			<point x="576" y="316" type="line" smooth="yes"/>
			<point x="576" y="486"/>
			<point x="525" y="556"/>
			<point x="382" y="564" type="curve" smooth="yes"/>
			<point x="100" y="580" type="line"/>
			<point x="62" y="436"/>
			<point x="54" y="401"/>
			<point x="54" y="346" type="curve" smooth="yes"/>
			<point x="54" y="235"/>
			<point x="116" y="200"/>
			<point x="286" y="180" type="curve"/>
			<point x="332" y="350" type="line"/>
			<point x="230" y="360"/>
			<point x="206" y="362"/>
			<point x="206" y="384" type="curve" smooth="yes"/>
			<point x="206" y="390"/>
			<point x="206" y="392"/>
			<point x="208" y="398" type="curve"/>
			<point x="282" y="394" type="line" smooth="yes"/>
			<point x="389" y="388"/>
			<point x="428" y="374"/>
			<point x="428" y="294" type="curve" smooth="yes"/>
			<point x="428" y="172" type="line"/>
			<point x="54" y="172" type="line"/>
		</contour>
	</outline>
</glyph>
<glyph name="pnQof" format="2">
	<advance width="664"/>
	<outline>
		<contour>
			<point x="380" y="-12" type="line"/>
			<point x="556" y="139"/>
			<point x="626" y="268"/>
			<point x="626" y="432" type="curve" smooth="yes"/>
			<point x="626" y="520"/>
			<point x="584" y="550"/>
			<point x="454" y="558" type="curve" smooth="yes"/>
			<point x="100" y="580" type="line"/>
			<point x="64" y="408" type="line"/>
			<point x="418" y="384" type="line" smooth="yes"/>
			<point x="447" y="382"/>
			<point x="458" y="377"/>
			<point x="458" y="348" type="curve" smooth="yes"/>
			<point x="458" y="273"/>
			<point x="388" y="224"/>
			<point x="278" y="134" type="curve"/>
		</contour>
		<contour>
			<point x="94" y="-200" type="line"/>
			<point x="242" y="-200" type="line"/>
			<point x="242" y="316" type="line"/>
			<point x="94" y="316" type="line"/>
		</contour>
	</outline>
</glyph>
<glyph name="pnRosh" format="2">
	<advance width="588"/>
	<outline>
		<contour>
			<point x="358" y="0" type="line"/>
			<point x="506" y="0" type="line"/>
			<point x="506" y="442" type="line" smooth="yes"/>
			<point x="506" y="533"/>
			<point x="455" y="568"/>
			<point x="380" y="568" type="curve" smooth="yes"/>
			<point x="50" y="568" type="line"/>
			<point x="14" y="396" type="line"/>
			<point x="288" y="396" type="line" smooth="yes"/>
			<point x="331" y="396"/>
			<point x="358" y="381"/>
			<point x="358" y="330" type="curve" smooth="yes"/>
		</contour>
	</outline>
</glyph>
<glyph name="pnSemk" format="2">
	<advance width="700"/>
	<outline>
		<contour>
			<point x="178" y="-120" type="line"/>
			<point x="350" y="-120" type="line"/>
			<point x="350" y="412" type="line"/>
			<point x="178" y="412" type="line"/>
		</contour>
		<component base="Xi.sc"/>
	</outline>
	<guideline x="264" y="0" angle="90" identifier="zBwTZoD6DI"/>
</glyph>
<glyph name="pnShin" format="2">
	<advance width="732"/>
	<outline>
		<contour>
			<point x="138" y="-12" type="line"/>
			<point x="480" y="2"/>
			<point x="694" y="194"/>
			<point x="694" y="446" type="curve" smooth="yes"/>
			<point x="694" y="518"/>
			<point x="662" y="566"/>
			<point x="552" y="576" type="curve" smooth="yes"/>
			<point x="508" y="580" type="line"/>
			<point x="472" y="408" type="line"/>
			<point x="502" y="404" type="line" smooth="yes"/>
			<point x="535" y="400"/>
			<point x="546" y="383"/>
			<point x="546" y="362" type="curve" smooth="yes"/>
			<point x="546" y="278"/>
			<point x="445" y="187"/>
			<point x="252" y="176" type="curve"/>
			<point x="182" y="574" type="line"/>
			<point x="32" y="552" type="line"/>
		</contour>
		<contour>
			<point x="188" y="200" type="line"/>
			<point x="366" y="236"/>
			<point x="452" y="320"/>
			<point x="452" y="446" type="curve" smooth="yes"/>
			<point x="452" y="518"/>
			<point x="420" y="566"/>
			<point x="310" y="576" type="curve" smooth="yes"/>
			<point x="266" y="580" type="line"/>
			<point x="230" y="408" type="line"/>
			<point x="260" y="404" type="line" smooth="yes"/>
			<point x="293" y="400"/>
			<point x="304" y="388"/>
			<point x="304" y="372" type="curve" smooth="yes"/>
			<point x="304" y="353"/>
			<point x="288" y="310"/>
			<point x="156" y="306" type="curve"/>
		</contour>
	</outline>
</glyph>
<glyph name="pnWau" format="2">
	<advance width="656"/>
	<outline>
		<contour>
			<point x="262" y="0" type="line"/>
			<point x="394" y="0" type="line"/>
			<point x="394" y="532" type="line"/>
			<point x="262" y="532" type="line"/>
		</contour>
		<contour>
			<point x="300" y="160" type="curve" smooth="yes"/>
			<point x="356" y="160" type="line" smooth="yes"/>
			<point x="511" y="160"/>
			<point x="608" y="226"/>
			<point x="608" y="400" type="curve" smooth="yes"/>
			<point x="608" y="532" type="line"/>
			<point x="468" y="532" type="line"/>
			<point x="468" y="410" type="line" smooth="yes"/>
			<point x="468" y="308"/>
			<point x="430" y="290"/>
			<point x="366" y="290" type="curve" smooth="yes"/>
			<point x="290" y="290" type="line" smooth="yes"/>
			<point x="226" y="290"/>
			<point x="188" y="308"/>
			<point x="188" y="410" type="curve" smooth="yes"/>
			<point x="188" y="532" type="line"/>
			<point x="48" y="532" type="line"/>
			<point x="48" y="400" type="line" smooth="yes"/>
			<point x="48" y="226"/>
			<point x="145" y="160"/>
		</contour>
	</outline>
</glyph>
<glyph name="pnYod" format="2">
	<advance width="376"/>
	<outline>
		<contour>
			<point x="82" y="206" type="line"/>
			<point x="254" y="206" type="line"/>
			<point x="254" y="330" type="line"/>
			<point x="82" y="330" type="line"/>
		</contour>
		<component base="pnZai"/>
	</outline>
</glyph>
<glyph name="quotesinglbase.lat" format="1">
  <advance width="320"/>
  <outline>
    <contour>
      <point x="110" y="-178" type="line"/>
      <point x="216" y="-128"/>
      <point x="266" y="-50"/>
      <point x="266" y="50" type="curve" smooth="yes"/>
      <point x="266" y="142"/>
      <point x="230" y="196"/>
      <point x="160" y="196" type="curve" smooth="yes"/>
      <point x="110" y="196"/>
      <point x="74" y="160"/>
      <point x="74" y="104" type="curve" smooth="yes"/>
      <point x="74" y="54"/>
      <point x="112" y="22"/>
      <point x="160" y="22" type="curve" smooth="yes"/>
      <point x="182" y="22"/>
      <point x="204" y="33"/>
      <point x="220" y="45" type="curve"/>
      <point x="169" y="118" type="line"/>
      <point x="170" y="24" type="line"/>
      <point x="170" y="-36"/>
      <point x="138" y="-76"/>
      <point x="74" y="-104" type="curve"/>
    </contour>
  </outline>
</glyph>
<glyph name="quotesingle.lat" format="2">
	<advance width="320"/>
	<outline>
		<contour>
			<point x="114" y="324" type="line"/>
			<point x="206" y="324" type="line"/>
			<point x="240" y="536" type="line"/>
			<point x="246" y="684" type="line"/>
			<point x="74" y="684" type="line"/>
			<point x="80" y="536" type="line"/>
		</contour>
	</outline>
</glyph>
<glyph name="slash.lat" format="1">
  <advance width="334"/>
  <outline>
    <contour>
      <point x="14" y="-160" type="line"/>
      <point x="124" y="-160" type="line"/>
      <point x="300" y="710" type="line"/>
      <point x="190" y="710" type="line"/>
    </contour>
  </outline>
</glyph>
<glyph name="ts" format="1">
	<advance width="688"/>
	<outline>
		<contour>
			<point x="264" y="-12" type="curve" smooth="yes"/>
			<point x="319" y="-12"/>
			<point x="356" y="-2"/>
			<point x="382" y="6" type="curve"/>
			<point x="356" y="130" type="line"/>
			<point x="344" y="126"/>
			<point x="328" y="122"/>
			<point x="312" y="122" type="curve" smooth="yes"/>
			<point x="280" y="122"/>
			<point x="252" y="140"/>
			<point x="252" y="195" type="curve" smooth="yes"/>
			<point x="252" y="366" type="line"/>
			<point x="366" y="366" type="line"/>
			<point x="366" y="500" type="line"/>
			<point x="252" y="500" type="line"/>
			<point x="252" y="630" type="line"/>
			<point x="110" y="630" type="line"/>
			<point x="90" y="500" type="line"/>
			<point x="14" y="494" type="line"/>
			<point x="14" y="366" type="line"/>
			<point x="80" y="366" type="line"/>
			<point x="80" y="192" type="line" smooth="yes"/>
			<point x="80" y="70"/>
			<point x="134" y="-12"/>
		</contour>
		<component base="s" xOffset="360"/>
		<contour>
			<point name="aboveUC" x="344" y="730" type="move"/>
		</contour>
		<contour>
			<point name="belowLC" x="344" y="-20" type="move"/>
		</contour>
	</outline>
</glyph>
